<svg width="601" height="167" viewBox="0 0 601 167" fill="none" xmlns="http://www.w3.org/2000/svg">
<path d="M26.751 0.74268L26.751 0.742697H26.7551H114.729H202.704H347.816H390.543C392.972 0.742697 395.308 1.673 397.072 3.34242L418.497 23.6164C420.447 25.4616 423.03 26.4898 425.714 26.4898H574.554H589.495C594.742 26.4898 598.995 30.7431 598.995 35.9898V43.6228C598.995 46.5495 597.646 49.3129 595.339 51.1131L588.072 56.7819C585.522 58.7716 584.031 61.8259 584.031 65.0607V115.225C584.031 118.276 585.358 121.177 587.667 123.171L595.705 130.113C597.794 131.918 598.995 134.547 598.995 137.308C598.995 142.556 594.741 146.819 589.495 146.819H199.292C196.411 146.819 193.657 148.003 191.674 150.092L178.997 163.454C177.203 165.345 174.711 166.416 172.105 166.416H11.814C6.56725 166.416 2.31396 162.162 2.31396 156.916V137.019C2.31396 134.415 3.38279 131.926 5.27056 130.132L12.6504 123.121C14.7369 121.138 15.9182 118.386 15.9182 115.508V64.7748C15.9182 61.7117 14.5807 58.8013 12.2561 56.8065L5.62732 51.1181C3.52416 49.3133 2.31396 46.6801 2.31396 43.9087V10.1195C2.31396 4.84203 6.61531 0.576112 11.8925 0.619767L26.751 0.74268Z" stroke="#FF9C07"/>
<path d="M0.000244141 54.2045C0.000244141 52.5062 1.9833 51.5807 3.28492 52.6716L12.8892 60.7209C13.3426 61.1009 13.6045 61.6622 13.6045 62.2538V116.622C13.6045 117.19 13.3632 117.731 12.9408 118.11L3.3365 126.735C2.04894 127.891 0.000244141 126.977 0.000244141 125.247V54.2045Z" fill="#FF9C07"/>
<path d="M600.402 54.2044C600.402 52.5061 598.419 51.5807 597.118 52.6716L587.513 60.7209C587.06 61.1009 586.798 61.6621 586.798 62.2537V116.622C586.798 117.19 587.039 117.731 587.462 118.11L597.066 126.735C598.354 127.891 600.402 126.977 600.402 125.247V54.2044Z" fill="#FF9C07"/>
<path d="M591.848 93.8606L595.544 90.1647C595.981 89.7283 595.981 89.014 595.544 88.5776L591.848 84.8817" stroke="#292D32" stroke-width="1.5" stroke-miterlimit="10" stroke-linecap="round" stroke-linejoin="round"/>
<path d="M256.335 152.44C256.617 152.157 257 151.997 257.399 151.997H277.258C278.591 151.997 279.262 153.608 278.322 154.554L267.884 165.066C267.602 165.349 267.219 165.509 266.819 165.509H246.961C245.627 165.509 244.957 163.898 245.897 162.952L256.335 152.44Z" stroke="#FF9C07"/>
<path d="M227.313 152.44C227.594 152.157 227.977 151.997 228.377 151.997H248.235C249.569 151.997 250.239 153.608 249.3 154.554L238.861 165.066C238.58 165.349 238.197 165.509 237.797 165.509H217.939C216.605 165.509 215.935 163.898 216.874 162.952L227.313 152.44Z" stroke="#FF9C07"/>
<path d="M198.29 152.44C198.572 152.157 198.955 151.997 199.355 151.997H219.213C220.547 151.997 221.217 153.608 220.277 154.554L209.839 165.066C209.557 165.349 209.174 165.509 208.774 165.509H188.916C187.582 165.509 186.912 163.898 187.852 162.952L198.29 152.44Z" fill="#FF9C07" stroke="#FF9C07"/>
</svg>
