<svg width="22" height="21" viewBox="0 0 22 21" fill="none" xmlns="http://www.w3.org/2000/svg">
<path fill-rule="evenodd" clip-rule="evenodd" d="M21.3664 14.2459L15.1855 2.80473C14.4134 1.40936 12.9445 0.543335 11.3498 0.543335C9.75512 0.543335 8.28621 1.40936 7.51418 2.80473L1.23467 14.235C0.496908 15.5925 0.528279 17.2382 1.31724 18.5666C2.1062 19.895 3.53623 20.71 5.08128 20.7117H17.5088C19.0525 20.7118 20.4824 19.8998 21.2734 18.5741C22.0643 17.2484 22.0996 15.6044 21.3664 14.2459ZM10.4074 7.93355C10.4074 7.47961 10.7753 7.11162 11.2293 7.11162C11.6832 7.11162 12.0512 7.47961 12.0512 7.93355V11.3199C12.0512 11.7738 11.6832 12.1418 11.2293 12.1418C10.7753 12.1418 10.4074 11.7738 10.4074 11.3199V7.93355ZM11.2402 15.3309C11.6942 15.3309 12.0622 14.9629 12.0622 14.5089L12.0512 14.498C12.0512 14.0501 11.6881 13.687 11.2402 13.687C10.7888 13.6929 10.4242 14.0575 10.4183 14.5089C10.4183 14.9629 10.7863 15.3309 11.2402 15.3309Z" fill="white"/>
</svg>
