<svg width="43" height="43" viewBox="0 0 43 43" fill="none" xmlns="http://www.w3.org/2000/svg">
<g opacity="0.7">
<path d="M21.5813 4.87338C12.5926 4.87338 5.26782 12.1981 5.26782 21.1869C5.26782 30.1756 12.5926 37.5004 21.5813 37.5004C30.5701 37.5004 37.8948 30.1756 37.8948 21.1869C37.8948 12.1981 30.5701 4.87338 21.5813 4.87338ZM28.2046 19.996L22.4459 25.7547C22.2012 25.9994 21.8913 26.1136 21.5813 26.1136C21.2714 26.1136 20.9614 25.9994 20.7167 25.7547L14.958 19.996C14.485 19.5229 14.485 18.7399 14.958 18.2668C15.4311 17.7937 16.2142 17.7937 16.6873 18.2668L21.5813 23.1608L26.4754 18.2668C26.9485 17.7937 27.7315 17.7937 28.2046 18.2668C28.6777 18.7399 28.6777 19.5066 28.2046 19.996Z" fill="white"/>
</g>
<circle cx="21.5811" cy="21.187" r="19.8599" stroke="white" stroke-width="2"/>
</svg>
