<svg width="43" height="42" viewBox="0 0 43 42" fill="none" xmlns="http://www.w3.org/2000/svg">
<g opacity="0.4">
<g opacity="0.7">
<path d="M21.674 37.1733C30.6628 37.1733 37.9875 29.8486 37.9875 20.8598C37.9875 11.8711 30.6628 4.54633 21.674 4.54633C12.6853 4.54633 5.36054 11.8711 5.36054 20.8598C5.36054 29.8486 12.6853 37.1733 21.674 37.1733ZM15.0508 22.0507L20.8094 16.2921C21.0541 16.0474 21.3641 15.9332 21.674 15.9332C21.984 15.9332 22.294 16.0474 22.5387 16.2921L28.2973 22.0507C28.7704 22.5238 28.7704 23.3069 28.2973 23.78C27.8242 24.253 27.0412 24.253 26.5681 23.78L21.674 18.8859L16.78 23.78C16.3069 24.253 15.5239 24.253 15.0508 23.78C14.5777 23.3069 14.5777 22.5401 15.0508 22.0507Z" fill="white"/>
</g>
<circle cx="21.6743" cy="20.8598" r="19.8599" transform="rotate(180 21.6743 20.8598)" stroke="white" stroke-width="2"/>
</g>
</svg>
