<?xml version="1.0" encoding="utf-8"?>
<!-- Svg Vector Icons : http://www.onlinewebfonts.com/icon -->
<!DOCTYPE svg PUBLIC "-//W3C//DTD SVG 1.1//EN" "http://www.w3.org/Graphics/SVG/1.1/DTD/svg11.dtd">
<svg version="1.1" xmlns="http://www.w3.org/2000/svg" xmlns:xlink="http://www.w3.org/1999/xlink" x="0px" y="0px" viewBox="0 0 1000 1000" enable-background="new 0 0 1000 1000" xml:space="preserve">
<g><g transform="translate(0.000000,511.000000) scale(0.100000,-0.100000)"><path d="M593.7,2699.6c-223-79.5-426.1-313.5-474.7-547.6c-15.5-77.3-22.1-757.3-17.7-2110.8l6.6-1998.2l59.6-125.9c70.6-152.3,214.2-300.3,359.9-373.1l110.4-53h3046.9h3046.9l112.6,59.6c147.9,77.3,304.7,253.9,359.9,406.3c37.5,99.4,46.4,172.2,46.4,421.7c0,298.1,0,298.1,50.8,287c26.5-4.4,571.9-234,1212.1-510c638.1-273.8,1183.4-499,1209.9-499c26.5,0,77.3,28.7,112.6,64l64,64V107.5v2322.7l-64,64c-35.3,35.3-86.1,64-112.6,64c-26.5,0-571.9-225.2-1209.9-499c-640.3-276-1185.6-505.6-1212.1-510c-50.8-11-50.8-11-50.8,287c0,249.5-8.8,322.4-46.4,421.7c-55.2,152.3-212,329-359.9,406.2l-112.6,59.6l-3024.8,4.4C1128,2730.5,668.8,2726.1,593.7,2699.6z M6700.7,2308.8c39.8-26.5,97.1-83.9,123.7-123.6l50.8-75.1l-4.4-2015.8c-6.6-2004.8-6.6-2015.8-53-2077.7c-24.3-33.1-79.5-83.9-119.2-112.6l-72.9-48.6H3691.4c-3289.8,0-3033.7-13.2-3148.5,161.2l-59.6,90.5V107.5v2000.4l57.4,88.3c117,176.6-143.5,163.4,3146.3,163.4h2938.7L6700.7,2308.8z M9524.6,107.5c0-1079.7-6.6-1965-15.5-1965c-11,0-518.9,216.4-1132.6,481.3l-1115,479.1V107.5v1004.6l1115,479.1c613.8,264.9,1121.6,481.3,1132.6,481.3C9518,2072.6,9524.6,1189.4,9524.6,107.5z" fill="#222222"/></g></g>
</svg>