<?xml version="1.0" encoding="utf-8"?>
<!-- Generator: Adobe Illustrator 24.2.0, SVG Export Plug-In . SVG Version: 6.00 Build 0)  -->
<svg version="1.1" id="Layer_1" xmlns="http://www.w3.org/2000/svg" xmlns:xlink="http://www.w3.org/1999/xlink" x="0px" y="0px"
	 viewBox="0 0 200 200" style="enable-background:new 0 0 200 200;" xml:space="preserve">
<style type="text/css">
	.st0{fill:#FFFFFF;}
</style>
<g>
	<path class="st0" d="M100.21,18.33c27.81,0,55.63,0.01,83.44-0.01c2.79,0,5.51,0.23,7.98,1.66c4.34,2.51,6.33,6.4,6.34,11.3
		c0.04,18.52,0.03,37.04,0.03,55.56c0,15.7-0.01,31.39-0.01,47.09c0,8.39-5.46,13.86-13.8,13.86c-55.83-0.01-111.67-0.01-167.5-0.01
		c-9.43,0-14.7-5.31-14.69-14.73c0.02-33.6,0-67.19,0.03-100.79c0.01-8.65,5.25-13.91,13.91-13.92c28.09-0.03,56.18-0.01,84.27-0.01
		C100.21,18.34,100.21,18.34,100.21,18.33z M99.97,120.41c0-0.01,0-0.01,0-0.02c29.54,0,59.08-0.02,88.61,0.04
		c2.07,0,2.71-0.54,2.7-2.66c-0.06-28.64-0.03-57.28-0.03-85.93c0-4.81-1.93-6.74-6.77-6.74c-30.98-0.01-61.97-0.02-92.95-0.02
		c-25.27,0-50.54-0.01-75.81,0c-4.82,0-6.97,2.14-6.97,6.89c0,28.44,0,56.87,0.01,85.31c0,3.12,0.03,3.12,3.21,3.12
		C41.31,120.41,70.64,120.41,99.97,120.41z M93.38,133.73c-0.11,3.49,2.15,5.96,5.55,6.09c3.43,0.13,6.13-2.32,6.29-5.7
		c0.15-3.11-2.56-6.02-5.71-6.12C95.99,127.89,93.49,130.22,93.38,133.73z"/>
	<path class="st0" d="M99.08,181.67c-8.19,0-16.39,0.01-24.58,0c-2.54,0-2.66-0.15-2.67-2.71c-0.02-4.02-0.02-4.03,4.06-4.03
		c4.75,0,9.5-0.05,14.25,0.04c1.79,0.04,2.42-0.56,2.39-2.38c-0.09-5.58,0.02-11.16-0.06-16.73c-0.02-1.76,0.54-2.5,2.37-2.43
		c2.75,0.11,5.51,0.11,8.26,0c1.85-0.07,2.37,0.7,2.35,2.45c-0.08,5.51,0.05,11.02-0.07,16.52c-0.04,2,0.62,2.62,2.6,2.57
		c5.37-0.11,10.74,0.02,16.11-0.06c1.78-0.03,2.43,0.56,2.43,2.37c0,4.39,0.07,4.39-4.32,4.39
		C114.51,181.68,106.8,181.67,99.08,181.67z"/>
	<path class="st0" d="M89.28,78.14c0,11.35-0.03,22.7,0.03,34.05c0.01,1.86-0.62,2.62-2.51,2.54c-2.54-0.11-5.09-0.03-7.63-0.03
		c-2.54,0-2.7-0.14-2.7-2.67c-0.01-12.45-0.02-24.9-0.02-37.35c0-10.25,0.01-20.5,0.01-30.75c0-2.7,0.09-2.79,2.76-2.79
		c2.41,0,4.82-0.02,7.22-0.01c2.71,0.02,2.82,0.11,2.82,2.76c0.01,11.42,0,22.84,0,34.26C89.27,78.14,89.27,78.14,89.28,78.14z"/>
	<path class="st0" d="M52.07,88.24c0,7.98-0.04,15.95,0.03,23.93c0.02,1.84-0.54,2.63-2.47,2.54c-2.68-0.12-5.37-0.13-8.04,0
		c-2.06,0.1-2.36-0.94-2.36-2.66c0.04-14.51,0.03-29.02,0.04-43.53c0-1.58,0.03-3.16-0.02-4.74c-0.04-1.37,0.5-2.03,1.93-2.01
		c2.89,0.04,5.78,0.07,8.66-0.01c1.72-0.05,2.27,0.68,2.26,2.34C52.04,72.15,52.07,80.19,52.07,88.24z"/>
	<path class="st0" d="M33.48,96.89c0,5.09-0.05,10.17,0.03,15.26c0.03,1.82-0.5,2.65-2.45,2.56c-2.74-0.12-5.5-0.07-8.24-0.02
		c-1.43,0.03-2.16-0.41-2.15-1.98c0.03-10.51,0.02-21.03-0.01-31.54c0-1.52,0.67-2.07,2.13-2.05c2.82,0.05,5.64,0.07,8.45-0.01
		c1.71-0.05,2.29,0.66,2.27,2.32C33.44,86.58,33.48,91.74,33.48,96.89z"/>
	<path class="st0" d="M57.86,99.68c0-4.19,0.04-8.38-0.02-12.58c-0.02-1.58,0.54-2.24,2.16-2.2c2.75,0.08,5.5,0.08,8.25,0
		c1.72-0.05,2.47,0.51,2.46,2.35c-0.07,8.45-0.05,16.9-0.01,25.36c0.01,1.49-0.53,2.12-2.05,2.09c-2.82-0.06-5.64-0.09-8.45,0.01
		c-1.84,0.07-2.38-0.72-2.35-2.45C57.91,108.06,57.86,103.87,57.86,99.68z"/>
	<g>
		<path class="st0" d="M137.85,39.1c0,0.42,0,0.83,0,1.25c0.03,5.16,0.23,5.98-5.21,8.02c-12.07,4.53-17.02,16.31-15.96,25.58
			c1.47,12.93,10.05,21.58,22.25,23.19c11.85,1.57,23.14-5.42,27.17-16.81c1.36-3.84,1.83-4.18,5.95-4.18
			c2.41-0.01,4.82-0.05,7.22,0.01c3.31,0.08,4.47,1.6,3.76,4.84c-4.04,18.57-19.91,31.73-38.89,32.87
			c-18.92,1.13-38.3-11.89-43.08-32.69c-5.12-22.31,8.89-44.87,31.2-50.06c3.9-0.91,5.51,0.32,5.58,4.26
			C137.87,36.61,137.85,37.86,137.85,39.1z"/>
		<path class="st0" d="M146.69,38.86c0-1.66-0.13-3.33,0.03-4.97c0.25-2.56,1.97-3.72,4.52-3.25c15.15,2.75,29.29,16.82,32.03,31.88
			c0.55,2.99-0.68,4.68-3.71,4.8c-2.98,0.12-5.97,0.06-8.95,0.01c-1.94-0.04-3.29-1-3.89-2.9c-2.75-8.71-8.5-14.42-17.19-17.18
			c-1.91-0.6-2.82-1.96-2.88-3.9c-0.04-1.49-0.01-2.98-0.01-4.48C146.66,38.86,146.68,38.86,146.69,38.86z"/>
	</g>
</g>
</svg>
