<?xml version="1.0" encoding="utf-8"?>
<!-- Svg Vector Icons : http://www.onlinewebfonts.com/icon -->
<!DOCTYPE svg PUBLIC "-//W3C//DTD SVG 1.1//EN" "http://www.w3.org/Graphics/SVG/1.1/DTD/svg11.dtd">
<svg version="1.1" xmlns="http://www.w3.org/2000/svg" xmlns:xlink="http://www.w3.org/1999/xlink" x="0px" y="0px" viewBox="0 0 1000 1000" enable-background="new 0 0 1000 1000" xml:space="preserve">
<g><g transform="translate(0.000000,511.000000) scale(0.100000,-0.100000)"><path d="M9601.9,4779.7c-35.3-22.1-2099.7-2077.6-4585.8-4563.7c-3287.6-3292-4524-4541.6-4535-4588c-30.9-125.8,101.6-253.9,229.6-223C777-4579.6,9811.7,4433,9869.1,4539c46.4,88.3,37.5,145.7-33.1,218.6C9760.9,4832.7,9694.7,4839.3,9601.9,4779.7z" fill="#ffffff"/><path d="M593.7,2512.2c-223-79.5-426.1-313.5-474.7-547.6c-15.5-77.3-22.1-757.3-17.7-2110.7l6.6-1998.2l59.6-125.8c70.6-152.4,214.2-300.3,359.9-373.1c103.8-50.8,134.7-53,571.8-59.6l461.5-6.6l185.5,183.3l183.3,183.3l-611.6,11c-591.7,11-616,13.2-684.4,61.8c-37.5,26.5-90.5,92.7-114.8,145.7c-46.4,95-46.4,101.6-41.9,2071l6.6,1973.8l59.6,90.5c114.8,174.4-130.3,161.2,3057.9,161.2h2846l163.4,165.6c90.5,90.5,154.6,172.2,145.7,181c-8.8,8.8-1379.9,19.9-3044.7,22.1C1130.2,2543.1,668.8,2538.7,593.7,2512.2z" fill="#ffffff"/><path d="M8486.9,1863.1c-649.1-280.4-1196.7-507.8-1214.3-507.8c-19.9,0-114.8-81.7-216.4-183.3l-181-181l-4.4-1550c-6.6-1532.3-6.6-1549.9-53-1611.8c-24.3-33.1-79.5-83.9-119.2-110.4l-72.9-50.8H5089H3552.3l-187.7-187.7L3177-2707.3l1777.4,4.4l1777.3,6.6l112.6,59.6c147.9,77.3,304.7,253.9,359.9,406.2c37.5,99.4,46.4,172.2,46.4,421.7c0,298.1,0,298.1,50.8,287c26.5-4.4,571.9-234,1212.1-510c638.1-273.8,1183.4-499,1209.9-499c26.5,0,77.3,28.7,112.6,64l64,64V-79.9v2322.7l-64,64c-35.3,35.3-88.3,64-117,64C9690.2,2370.9,9136.1,2141.2,8486.9,1863.1z M9524.6-79.9c0-1079.7-6.6-1965-15.5-1965c-11,0-518.9,216.4-1132.6,481.3l-1115,479.1V-79.9V924.7l1115,479.1c613.8,264.9,1121.6,481.3,1132.6,481.3C9518,1885.1,9524.6,1002,9524.6-79.9z" fill="#ffffff"/></g></g>
</svg>