<svg width="601" height="168" viewBox="0 0 601 168" fill="none" xmlns="http://www.w3.org/2000/svg">
<path d="M26.751 1.21644L26.751 1.21645H26.7551H114.729H202.704H347.816H390.543C392.972 1.21645 395.308 2.14675 397.072 3.81618L418.497 24.0902C420.447 25.9353 423.03 26.9636 425.714 26.9636H574.554H589.495C594.742 26.9636 598.995 31.2169 598.995 36.4636V44.0965C598.995 47.0233 597.646 49.7866 595.339 51.5869L588.072 57.2557C585.522 59.2454 584.031 62.2996 584.031 65.5344V115.699C584.031 118.75 585.358 121.65 587.667 123.645L595.705 130.587C597.794 132.392 598.995 135.021 598.995 137.782C598.995 143.029 594.741 147.293 589.495 147.293H199.292C196.411 147.293 193.657 148.476 191.674 150.566L178.997 163.928C177.203 165.819 174.711 166.889 172.105 166.889H11.814C6.56725 166.889 2.31396 162.636 2.31396 157.389V137.493C2.31396 134.889 3.38279 132.399 5.27056 130.606L12.6504 123.594C14.7369 121.612 15.9182 118.86 15.9182 115.982V65.2485C15.9182 62.1854 14.5807 59.275 12.2561 57.2803L5.62732 51.5918C3.52416 49.787 2.31396 47.1538 2.31396 44.3824V10.5932C2.31396 5.31579 6.61531 1.04987 11.8925 1.09352L26.751 1.21644Z" stroke="white" stroke-opacity="0.2"/>
<g opacity="0.2">
<path d="M-0.000244141 54.6782C-0.000244141 52.9799 1.98281 52.0545 3.28443 53.1454L12.8887 61.1947C13.3421 61.5747 13.604 62.1359 13.604 62.7275V117.096C13.604 117.664 13.3627 118.205 12.9403 118.584L3.33601 127.208C2.04845 128.365 -0.000244141 127.451 -0.000244141 125.72V54.6782Z" fill="white"/>
</g>
<path d="M600.402 54.6782C600.402 52.9799 598.419 52.0544 597.117 53.1453L587.513 61.1946C587.06 61.5746 586.798 62.1359 586.798 62.7275V117.096C586.798 117.664 587.039 118.205 587.462 118.584L597.066 127.208C598.353 128.365 600.402 127.451 600.402 125.72V54.6782Z" fill="#D9D9D9"/>
<path d="M591.849 94.3343L595.544 90.6384C595.981 90.202 595.981 89.4877 595.544 89.0513L591.849 85.3554" stroke="#292D32" stroke-width="1.5" stroke-miterlimit="10" stroke-linecap="round" stroke-linejoin="round"/>
<path d="M256.335 152.914C256.616 152.631 256.999 152.471 257.399 152.471H277.257C278.591 152.471 279.261 154.082 278.322 155.028L267.883 165.539C267.602 165.823 267.219 165.982 266.819 165.982H246.961C245.627 165.982 244.957 164.372 245.896 163.425L256.335 152.914Z" stroke="white" stroke-opacity="0.2"/>
<path d="M227.312 152.914C227.594 152.631 227.977 152.471 228.377 152.471H248.235C249.569 152.471 250.239 154.082 249.299 155.028L238.861 165.539C238.579 165.823 238.196 165.982 237.796 165.982H217.938C216.604 165.982 215.934 164.372 216.874 163.425L227.312 152.914Z" stroke="white" stroke-opacity="0.2"/>
<path d="M197.935 152.562C198.31 152.184 198.821 151.971 199.354 151.971H219.212C220.991 151.971 221.885 154.118 220.631 155.38L210.193 165.892C209.818 166.27 209.307 166.482 208.774 166.482H188.916C187.137 166.482 186.244 164.335 187.497 163.073L197.935 152.562Z" fill="white"/>
<path d="M198.29 152.914C198.571 152.631 198.954 152.471 199.354 152.471H219.212C220.546 152.471 221.216 154.082 220.277 155.028L209.838 165.539C209.557 165.823 209.174 165.982 208.774 165.982H188.916C187.582 165.982 186.912 164.372 187.851 163.425L198.29 152.914Z" stroke="white" stroke-opacity="0.2"/>
</svg>
