<?xml version="1.0" encoding="utf-8"?><svg xml:space="preserve" viewBox="0 0 100 100" y="0" x="0" xmlns="http://www.w3.org/2000/svg" id="圖層_1" version="1.1" width="128px" height="128px" xmlns:xlink="http://www.w3.org/1999/xlink" style="width:100%;height:100%;background-size:initial;background-repeat-y:initial;background-repeat-x:initial;background-position-y:initial;background-position-x:initial;background-origin:initial;background-color:initial;background-clip:initial;background-attachment:initial;animation-play-state:paused" ><g class="ldl-scale" style="transform-origin:50% 50%;transform:rotate(0deg) scale(1, 1);animation-play-state:paused" ><path fill="#333" d="M43.12 79.844H27.379a1.798 1.798 0 0 1-1.798-1.798V21.954c0-.993.805-1.798 1.798-1.798H43.12c.993 0 1.798.805 1.798 1.798v56.092a1.797 1.797 0 0 1-1.798 1.798z" style="fill:rgb(182, 182, 182);animation-play-state:paused" ></path>
<path fill="#333" d="M72.62 79.844H56.879a1.798 1.798 0 0 1-1.798-1.798V21.954c0-.993.805-1.798 1.798-1.798H72.62c.993 0 1.798.805 1.798 1.798v56.092a1.797 1.797 0 0 1-1.798 1.798z" style="fill:rgb(182, 182, 182);animation-play-state:paused" ></path>
<metadata xmlns:d="https://loading.io/stock/" style="animation-play-state:paused" ><d:name style="animation-play-state:paused" >pause</d:name>


<d:tags style="animation-play-state:paused" >pause,stop,halt,stay,trap,player</d:tags>


<d:license style="animation-play-state:paused" >by</d:license>


<d:slug style="animation-play-state:paused" >2wfcys</d:slug></metadata></g><!-- generated by https://loading.io/ --></svg>