<?xml version="1.0" encoding="iso-8859-1"?>
<!-- Generator: Adobe Illustrator 18.1.1, SVG Export Plug-In . SVG Version: 6.00 Build 0)  -->
<svg version="1.1" id="Capa_1" xmlns="http://www.w3.org/2000/svg" xmlns:xlink="http://www.w3.org/1999/xlink" x="0px" y="0px"
	 viewBox="0 0 456.556 456.556" style="enable-background:new 0 0 456.556 456.556;" xml:space="preserve">
<g>
	<path d="M228.278,249.49c-7.413,0-13.421-6.001-13.428-13.414l-0.238-222.634C214.605,6.029,220.613,0.007,228.026,0
		c0.007,0,0.007,0,0.014,0c7.413,0,13.421,6.001,13.428,13.414l0.238,222.634c0.007,7.413-6.001,13.435-13.414,13.442
		C228.285,249.49,228.285,249.49,228.278,249.49z" fill="#b6b6b6"/>
	<path d="M228.278,456.556c-109.194,0-198.03-88.835-198.03-198.03c0-86.43,55.258-162.221,137.498-188.602
		c7.078-2.28,14.624,1.63,16.883,8.686c2.266,7.057-1.623,14.617-8.686,16.883c-71.078,22.8-118.839,88.318-118.839,163.033
		c0,94.388,76.785,171.174,171.174,171.174s171.174-76.785,171.174-171.174c0-74.715-47.761-140.233-118.839-163.033
		c-7.064-2.266-10.952-9.826-8.686-16.883c2.259-7.064,9.819-10.959,16.883-8.686c82.24,26.381,137.498,102.173,137.498,188.602
		C426.308,367.721,337.472,456.556,228.278,456.556z" fill="#b6b6b6"/>
</g>
<g>
</g>
<g>
</g>
<g>
</g>
<g>
</g>
<g>
</g>
<g>
</g>
<g>
</g>
<g>
</g>
<g>
</g>
<g>
</g>
<g>
</g>
<g>
</g>
<g>
</g>
<g>
</g>
<g>
</g>
</svg>
