<svg width="27" height="28" viewBox="0 0 27 28" fill="none" xmlns="http://www.w3.org/2000/svg">
<circle cx="13.5359" cy="13.7083" r="2.14796" fill="white"/>
<path fill-rule="evenodd" clip-rule="evenodd" d="M21.6746 10.3338C21.8833 10.8424 22.378 11.1752 22.9278 11.1768C23.2882 11.1768 23.6339 11.3199 23.8887 11.5748C24.1436 11.8296 24.2867 12.1753 24.2867 12.5357V14.8809C24.2867 15.6314 23.6783 16.2398 22.9278 16.2398C22.378 16.2414 21.8833 16.5742 21.6746 17.0828C21.4659 17.5915 21.5842 18.1758 21.9744 18.5631C22.4978 19.0995 22.4978 19.9555 21.9744 20.4919L20.3305 22.1358C19.7942 22.6592 18.9382 22.6592 18.4018 22.1358C18.0144 21.7456 17.4301 21.6272 16.9214 21.836C16.4128 22.0447 16.0801 22.5394 16.0785 23.0892C16.0785 23.8397 15.47 24.4481 14.7195 24.4481H12.3743C11.6238 24.4481 11.0154 23.8397 11.0154 23.0892C11.0138 22.5394 10.681 22.0447 10.1724 21.836C9.66375 21.6272 9.07944 21.7456 8.69209 22.1358C8.1557 22.6592 7.29969 22.6592 6.7633 22.1358L5.11945 20.4919C4.59601 19.9555 4.59601 19.0995 5.11945 18.5631C5.51107 18.1744 5.62871 17.5874 5.41716 17.0777C5.20561 16.5681 4.70687 16.237 4.15506 16.2398C3.40455 16.2398 2.79614 15.6314 2.79614 14.8809V12.5357C2.79614 11.7852 3.40455 11.1768 4.15506 11.1768C4.70487 11.1752 5.19954 10.8424 5.40828 10.3338C5.61702 9.82513 5.49868 9.24082 5.10849 8.85346C4.58505 8.31707 4.58505 7.46107 5.10849 6.92468L6.75234 5.28083C7.28873 4.75739 8.14474 4.75739 8.68113 5.28083C9.06989 5.67244 9.65686 5.79009 10.1665 5.57854C10.6762 5.36698 11.0073 4.86824 11.0044 4.31644C11.0044 3.56593 11.6128 2.95752 12.3634 2.95752H14.7195C15.0799 2.95752 15.4256 3.10069 15.6804 3.35554C15.9353 3.61038 16.0785 3.95603 16.0785 4.31644C16.0756 4.86824 16.4067 5.36698 16.9164 5.57854C17.426 5.79009 18.013 5.67244 18.4018 5.28083C18.9382 4.75739 19.7942 4.75739 20.3305 5.28083L21.9744 6.92468C22.4978 7.46107 22.4978 8.31707 21.9744 8.85346C21.5842 9.24082 21.4659 9.82513 21.6746 10.3338ZM9.74415 13.7083C9.74415 15.8025 11.4418 17.5001 13.536 17.5001C15.6301 17.5001 17.3278 15.8025 17.3278 13.7083C17.3278 11.6141 15.6301 9.91649 13.536 9.91649C11.4418 9.91649 9.74415 11.6141 9.74415 13.7083Z" fill="white"/>
</svg>
